<svg id="eUVWFg3wKD61" xmlns="http://www.w3.org/2000/svg" xmlns:xlink="http://www.w3.org/1999/xlink" viewBox="0 0 187 74" shape-rendering="geometricPrecision" text-rendering="geometricPrecision"><g clip-rule="evenodd"><g clip-rule="evenodd"><path d="M168.256,20.535l-74.838-.001c-1.096,0-2.039.773-2.254,1.847L87.873,38.838c-.135.676.039,1.376.476,1.908.437.533,1.089.842,1.778.842h74.918c1.098,0,2.042-.776,2.255-1.853l3.212-16.461c.132-.674-.045-1.372-.482-1.902-.436-.53-1.087-.837-1.774-.837Z" clip-rule="evenodd" fill="#384e54" fill-rule="evenodd" stroke-linecap="round"/><path d="M90.127,39.289l3.291-16.457h5.216c1.088,0,2.068.147,2.939.439.87.293,1.565.764,2.083,1.412.519.649.778,1.511.778,2.587c0,1.172-.203,2.172-.607,3.001-.405.828-.961,1.497-1.668,2.006-.706.509-1.52.881-2.441,1.117-.921.235-1.891.352-2.908.352h-1.807l-1.121,5.543h-3.755Zm5.466-8.506h1.457c1.154,0,2.043-.25,2.668-.751.624-.501.937-1.236.937-2.204c0-.7-.226-1.214-.678-1.541-.452-.328-1.105-.492-1.959-.492h-1.457l-.968,4.988Z" clip-rule="evenodd" fill="#fff" stroke-linecap="round"/><path d="M112.017,33.434h-1.627l-1.153,5.855h-3.755l3.291-16.457h5.152c1.087,0,2.073.142,2.959.425.885.282,1.587.747,2.105,1.393.519.646.778,1.521.778,2.626c0,1.07-.21,1.991-.629,2.763-.42.772-.989,1.409-1.707,1.91-.556.388-1.158.699-1.808.933l2.633,6.407h-4.157l-2.082-5.855Zm-1.014-2.963h1.355c1.164,0,2.056-.259,2.676-.776.621-.517.931-1.191.931-2.023c0-.65-.214-1.125-.641-1.426-.428-.3-1.053-.451-1.877-.451h-1.531l-.913,4.676Z" clip-rule="evenodd" fill="#fff" stroke-linecap="round"/><path d="M121.158,39.289l.659-3.148h3.791l2.069-10.161h-3.841l.659-3.148h11.398l-.659,3.148h-3.8l-2.07,10.161h3.846l-.659,3.148h-11.393Z" clip-rule="evenodd" fill="#fff" stroke-linecap="round"/><path d="M136.756,39.289l3.291-16.456h3.76l1.713,8.233.587,3.609h.101c.036-.434.084-.933.143-1.496.059-.564.118-1.132.178-1.703.061-.571.124-1.099.192-1.585.067-.485.127-.883.18-1.194l1.161-5.864h3.547l-3.291,16.456h-3.67l-1.846-8.232-.587-3.613h-.101c-.053.6-.115,1.283-.185,2.049-.069.766-.151,1.517-.243,2.252-.093.735-.19,1.373-.291,1.912l-1.092,5.632h-3.547Z" clip-rule="evenodd" fill="#fff" stroke-linecap="round"/><path d="M156.35,39.289l2.635-13.304h-4.902l.611-3.152h13.562l-.615,3.152h-4.903l-2.631,13.304h-3.757Z" clip-rule="evenodd" fill="#fff" stroke-linecap="round"/></g><g clip-rule="evenodd"><path d="M93.749,56.835c-.709,0-1.412-.128-2.108-.385-.697-.257-1.325-.634-1.884-1.131l1.361-1.626c.399.326.837.591,1.313.792.477.202.969.303,1.477.303.503,0,.875-.086,1.115-.257.241-.172.361-.388.361-.649c0-.251-.066-.45-.197-.597s-.318-.277-.56-.388c-.242-.112-.53-.235-.863-.369l-1.363-.581c-.384-.149-.746-.349-1.088-.601-.342-.253-.617-.565-.824-.938-.208-.372-.312-.812-.312-1.32c0-.584.161-1.11.483-1.579s.773-.844,1.352-1.125s1.248-.422,2.008-.422c.631,0,1.252.118,1.86.352.609.234,1.149.575,1.621,1.023l-1.197,1.494c-.366-.264-.731-.466-1.095-.608s-.804-.213-1.322-.213c-.385,0-.7.079-.945.237s-.368.392-.368.703c0,.21.073.383.219.52.146.136.348.259.607.368.259.108.553.226.883.353l1.284.541c.462.172.861.386,1.195.642.335.256.593.565.774.927s.272.79.272,1.284c0,.581-.158,1.118-.474,1.612-.316.495-.777.891-1.381,1.19s-1.339.448-2.204.448Z" clip-rule="evenodd" fill="#384e54" stroke-linecap="round"/><path d="M103.628,56.642v-10.486h6.947v1.988h-4.576v2.106h3.888v1.988h-3.888v2.416h4.737v1.988h-7.108Z" clip-rule="evenodd" fill="#384e54" stroke-linecap="round"/><path d="M116.455,56.642v-10.486h3.723c.742,0,1.418.097,2.029.293s1.1.532,1.468,1.01c.367.477.551,1.131.551,1.962c0,.799-.184,1.452-.551,1.96-.368.508-.857.883-1.468,1.125s-1.287.363-2.029.363h-1.353v3.773h-2.37Zm2.37-5.656h1.16c.625,0,1.1-.132,1.427-.396s.49-.654.49-1.169c0-.518-.163-.878-.49-1.08s-.802-.303-1.427-.303h-1.16v2.948Zm.92,1.258l1.639-1.517l3.347,5.915h-2.653l-2.333-4.398Z" clip-rule="evenodd" fill="#384e54" stroke-linecap="round"/><path d="M131.934,56.642l-3.169-10.486h2.509l1.264,4.886c.162.575.304,1.133.426,1.675s.26,1.104.415,1.688h.064c.163-.584.307-1.146.43-1.688s.26-1.1.41-1.675l1.238-4.886h2.424l-3.163,10.486h-2.848Z" clip-rule="evenodd" fill="#384e54" stroke-linecap="round"/><path d="M143.209,56.642v-10.486h6.948v1.988h-4.577v2.106h3.888v1.988h-3.888v2.416h4.737v1.988h-7.108Z" clip-rule="evenodd" fill="#384e54" stroke-linecap="round"/><path d="M156.036,56.642v-10.486h3.723c.742,0,1.418.097,2.029.293s1.101.532,1.468,1.01c.367.477.551,1.131.551,1.962c0,.799-.184,1.452-.551,1.96s-.857.883-1.468,1.125-1.287.363-2.029.363h-1.353v3.773h-2.37Zm2.37-5.656h1.16c.625,0,1.1-.132,1.427-.396s.49-.654.49-1.169c0-.518-.163-.878-.49-1.08s-.802-.303-1.427-.303h-1.16v2.948Zm.92,1.258l1.639-1.517l3.347,5.915h-2.653l-2.333-4.398Z" clip-rule="evenodd" fill="#384e54" stroke-linecap="round"/></g></g><path d="M9.312,36.273h54.781v-19.584c0-3.314-2.686-6-6-6-10.536,0-32.244,0-42.781,0-3.313,0-6,2.686-6,6c0,7.562,0,19.584,0,19.584Z" clip-rule="evenodd" fill="#384e54" fill-rule="evenodd" stroke-linecap="round"/><path d="M9.312,36.273h54.781v-19.584c0-3.314-2.686-6-6-6-10.536,0-32.244,0-42.781,0-3.313,0-6,2.686-6,6c0,7.562,0,19.584,0,19.584Zm2-2v-17.584c0-2.209,1.791-4,4-4c0,0,42.781,0,42.781,0c2.21,0,4,1.791,4,4c0,0,0,17.584,0,17.584h-50.781Z" clip-rule="evenodd" fill="#171311" fill-rule="evenodd" stroke-linecap="round"/><path d="M14,36.273h45v-28.322c0-3.314-2.686-6-6-6-8.612,0-24.388,0-33,0-3.314,0-6,2.686-6,6c0,9.839,0,28.322,0,28.322Z" clip-rule="evenodd" fill="#fff" fill-rule="evenodd" stroke-linecap="round"/><path d="M14,36.273h45v-28.322c0-3.314-2.686-6-6-6-8.612,0-24.388,0-33,0-3.314,0-6,2.686-6,6c0,9.839,0,28.322,0,28.322Zm2-2v-26.322c0-2.209,1.791-4,4-4c0,0,33,0,33,0c2.209,0,4,1.791,4,4c0,0,0,26.322,0,26.322h-41Z" clip-rule="evenodd" fill="#171311" fill-rule="evenodd" stroke-linecap="round"/><g id="eUVWFg3wKD621" transform="translate(0 0.000001)"><path d="M14,36.273h45v-28.322c0-3.314-2.686-6-6-6-8.612,0-24.388,0-33,0-3.314,0-6,2.686-6,6c0,9.839,0,28.322,0,28.322Z" clip-rule="evenodd" fill="#fff" fill-rule="evenodd" stroke-linecap="round"/><path d="M14,36.273h45v-28.322c0-3.314-2.686-6-6-6-8.612,0-24.388,0-33,0-3.314,0-6,2.686-6,6c0,9.839,0,28.322,0,28.322Zm2-2v-26.322c0-2.209,1.791-4,4-4c0,0,33,0,33,0c2.209,0,4,1.791,4,4c0,0,0,26.322,0,26.322h-41Z" clip-rule="evenodd" fill="#171311" fill-rule="evenodd" stroke-linecap="round"/></g><g clip-rule="evenodd"><rect width="54.781" height="3.256" rx="0" ry="0" transform="translate(9.312 18.645)" clip-rule="evenodd" fill-opacity="0.2" fill-rule="evenodd" stroke-linecap="round"/><path d="M71,26.273c0-1.592-.632-3.118-1.757-4.243-1.126-1.125-2.652-1.757-4.243-1.757-12.892,0-43.108,0-56,0-1.591,0-3.117.632-4.243,1.757C3.632,23.155,3,24.681,3,26.273c0,6.775,0,17.736,0,24.512c0,1.591.632,3.117,1.757,4.243C5.883,56.153,7.409,56.785,9,56.785c12.892,0,43.108,0,56,0c1.591,0,3.117-.632,4.243-1.757C70.368,53.902,71,52.376,71,50.785c0-6.776,0-17.737,0-24.512Z" clip-rule="evenodd" fill="#76e1fe" fill-rule="evenodd" stroke-linecap="round"/><path d="M71,26.273c0-1.592-.632-3.118-1.757-4.243-1.126-1.125-2.652-1.757-4.243-1.757-12.892,0-43.108,0-56,0-1.591,0-3.117.632-4.243,1.757C3.632,23.155,3,24.681,3,26.273c0,6.775,0,17.736,0,24.512c0,1.591.632,3.117,1.757,4.243C5.883,56.153,7.409,56.785,9,56.785c12.892,0,43.108,0,56,0c1.591,0,3.117-.632,4.243-1.757C70.368,53.902,71,52.376,71,50.785c0-6.776,0-17.737,0-24.512Zm-2,0c0,6.775,0,17.736,0,24.512c0,1.061-.421,2.078-1.172,2.828-.75.75-1.767,1.172-2.828,1.172h-56c-1.061,0-2.078-.422-2.828-1.172C5.421,52.863,5,51.846,5,50.785c0-6.776,0-17.737,0-24.512c0-1.061.421-2.079,1.172-2.829.75-.75,1.767-1.171,2.828-1.171h56c1.061,0,2.078.421,2.828,1.171.751.75,1.172,1.768,1.172,2.829Z" clip-rule="evenodd" fill="#384e54" fill-rule="evenodd" stroke-linecap="round"/><g clip-rule="evenodd"><circle r="2" transform="translate(12 29.675)" clip-rule="evenodd" fill-opacity="0.33" fill-rule="evenodd" stroke-linecap="round"/><circle r="2" transform="translate(12 29.273)" clip-rule="evenodd" fill="#23201f" fill-rule="evenodd" stroke-linecap="round"/></g><g clip-rule="evenodd"><circle r="2" transform="translate(18 29.675)" clip-rule="evenodd" fill-opacity="0.33" fill-rule="evenodd" stroke-linecap="round"/><circle r="2" transform="translate(18 29.273)" clip-rule="evenodd" fill="#c38c74" fill-rule="evenodd" stroke-linecap="round"/></g><g clip-rule="evenodd"><path d="M64.093,47.042c0-2.208-1.792-4-4-4h-46.093c-2.208,0-4,1.792-4,4c0,2.207,1.792,4,4,4h46.093c2.208,0,4-1.793,4-4Z" clip-rule="evenodd" fill-opacity="0.33" fill-rule="evenodd" stroke-linecap="round"/><path d="M64.093,46.273c0-2.208-1.792-4-4-4h-46.093c-2.208,0-4,1.792-4,4c0,2.207,1.792,4,4,4h46.093c2.208,0,4-1.793,4-4Z" clip-rule="evenodd" fill="#384e54" fill-rule="evenodd" stroke-linecap="round"/></g></g><rect width="54.017" height="27.74" rx="0" ry="0" transform="translate(10.076 46.26)" clip-rule="evenodd" fill="none" fill-rule="evenodd" stroke-linecap="round"/><g clip-path="url(#eUVWFg3wKD692)" clip-rule="evenodd"><g><g><path d="M59,45.273h-45v21c0,1.591.632,3.117,1.757,4.242c1.126,1.126,2.652,1.758,4.243,1.758c8.612,0,24.388,0,33,0c1.591,0,3.117-.632,4.243-1.758C58.368,69.39,59,67.864,59,66.273c0-7.955,0-21,0-21Z" clip-rule="evenodd" fill="#fff" fill-rule="evenodd" stroke-linecap="round"/><g clip-path="url(#eUVWFg3wKD663)" clip-rule="evenodd"><g><g clip-rule="evenodd"><path d="M20.959,64.453c.972,1.72,3.251,2.275,5.087,1.238c1.837-1.037,2.539-3.276,1.567-4.996-.971-1.72-3.25-2.275-5.087-1.238-1.836,1.037-2.538,3.275-1.567,4.996Z" clip-rule="evenodd" fill="#384e54" fill-rule="evenodd" stroke-linecap="round"/><path d="M52.041,64.452c-.972,1.721-3.251,2.275-5.087,1.239-1.837-1.037-2.539-3.276-1.567-4.996.971-1.72,3.25-2.275,5.087-1.238c1.836,1.037,2.538,3.275,1.567,4.995Z" clip-rule="evenodd" fill="#384e54" fill-rule="evenodd" stroke-linecap="round"/><path d="M36.455,67.271c1.106-.01,2.21-.049,3.316-.09c5.933-.22,10.776-4.94,10.776-10.908v-20h-28v20c0,5.968,4.667,10.491,10.59,10.908c1.106.078,2.212.099,3.318.09Z" clip-rule="evenodd" fill="#384e54" stroke-linecap="round"/><path d="M47.939,63.589c-.46-.26-1.818-1.202-1.981-1.648-.184-.504-.16-1.066.114-1.551.347-.614,1.006-.949,1.697-.937.34.01,1.72.637,2.042.819.978.552,1.351,1.742.834,2.658s-1.729,1.211-2.706.659Z" clip-rule="evenodd" fill="#76e1fe" stroke-linecap="round"/><rect width="3.087" height="3.531" rx="0" ry="0" transform="translate(35.054 49.419)" clip-rule="evenodd" fill-opacity="0.33" fill-rule="evenodd" stroke-linecap="round"/><path d="M36.547,65.273c9,0,12-3.716,12-9v-20h-24c.049,7.356,0,18,0,20c0,5.285,3,9,12,9Z" clip-rule="evenodd" fill="#76e1fe" stroke-linecap="round"/><path d="M25.473,63.589c.459-.26,1.818-1.202,1.981-1.648.183-.504.159-1.066-.115-1.551-.347-.614-1.005-.949-1.696-.937-.34.01-1.721.637-2.043.819-.978.552-1.351,1.742-.834,2.658s1.729,1.211,2.707.659Z" clip-rule="evenodd" fill="#76e1fe" stroke-linecap="round"/><circle r="4.654" transform="translate(31.371 58.281)" clip-rule="evenodd" fill="#fff" fill-rule="evenodd" stroke-linecap="round"/><circle r="4.832" transform="translate(42.207 58.281)" clip-rule="evenodd" fill="#fff" fill-rule="evenodd" stroke-linecap="round"/><rect width="3.667" height="4.106" rx="0" ry="0" transform="translate(34.763 49.303)" clip-rule="evenodd" fill="#fffcfb" fill-rule="evenodd" stroke-linecap="round"/><path d="M34.523,55.338c-1.184-.383-1.976-1.083-1.976-1.884v0c0-.838.871-1.269,2.145-1.166.023,0,.048.6.254.583.504-.042,1.096.02,1.686.02.613,0,1.206-.183,1.685-.017.111.038.179-.584.262-.582c1.244.033,2.079.339,2.079,1.162c0,.801-.793,1.501-1.976,1.884-.028.726-.949,1.31-2.08,1.31-1.13,0-2.051-.584-2.079-1.31Z" clip-rule="evenodd" fill-opacity="0.33" stroke-linecap="round"/><path d="M32.569,52.935c0-.569.434-.856,1.138-1.001.292-.06.631-.096,1.004-.116.564-.032,1.208-.031,1.891-.031.673,0,1.308,0,1.865.029.307.017.59.043.843.084.814.132,1.325.417,1.325,1.034c0,1.16-1.805,2.101-4.033,2.101-2.227,0-4.033-.941-4.033-2.101v.001Z" clip-rule="evenodd" fill="#c38c74" stroke-linecap="round"/><ellipse rx="2.08" ry="1.344" transform="translate(36.602 54.785)" clip-rule="evenodd" fill="#23201f" fill-rule="evenodd" stroke-linecap="round"/><circle r="1.963" transform="translate(43.119 56.738)" clip-rule="evenodd" fill="#171311" fill-rule="evenodd" stroke-linecap="round"/><circle r="1.963" transform="translate(32.423 56.738)" clip-rule="evenodd" fill="#171311" fill-rule="evenodd" stroke-linecap="round"/><path d="M47.541,61.362c1.171,1.084,2.027.772,2.044.747" clip-rule="evenodd" fill="none" stroke="#384e54" stroke-width="0.4" stroke-linecap="round"/><path d="M48.161,61.72c1.159-.036,1.347-.631,1.339-.653m-23.584.396c-1.17,1.083-2.027.772-2.044.746" clip-rule="evenodd" fill="none" stroke="#384e54" stroke-width="0.4" stroke-linecap="round"/><path d="M25.225,61.962c-1.159-.036-1.347-.63-1.339-.652" clip-rule="evenodd" fill="none" stroke="#384e54" stroke-width="0.4" stroke-linecap="round"/></g></g><clipPath id="eUVWFg3wKD663"><path d="M59,45.273h-45v21c0,1.591.632,3.117,1.757,4.242c1.126,1.126,2.652,1.758,4.243,1.758c8.612,0,24.388,0,33,0c1.591,0,3.117-.632,4.243-1.758C58.368,69.39,59,67.864,59,66.273c0-7.955,0-21,0-21Z" clip-rule="evenodd" fill-rule="evenodd" stroke-linecap="round"/></clipPath></g><path d="M59,45.273h-45v21c0,1.591.632,3.117,1.757,4.242c1.126,1.126,2.652,1.758,4.243,1.758c8.612,0,24.388,0,33,0c1.591,0,3.117-.632,4.243-1.758C58.368,69.39,59,67.864,59,66.273c0-7.955,0-21,0-21Zm-2,2v19c0,1.061-.421,2.078-1.172,2.828-.75.75-1.767,1.172-2.828,1.172c0,0-33,0-33,0-1.061,0-2.078-.422-2.828-1.172-.751-.75-1.172-1.767-1.172-2.828c0,0,0-19,0-19h41Z" clip-rule="evenodd" fill="#171311" fill-rule="evenodd" stroke-linecap="round"/></g><g id="eUVWFg3wKD666" transform="translate(0-26.000003)"><path d="M59,45.273h-45v21c0,1.591.632,3.117,1.757,4.242c1.126,1.126,2.652,1.758,4.243,1.758c8.612,0,24.388,0,33,0c1.591,0,3.117-.632,4.243-1.758C58.368,69.39,59,67.864,59,66.273c0-7.955,0-21,0-21Z" clip-rule="evenodd" fill="#fff" fill-rule="evenodd" stroke-linecap="round"/><g clip-path="url(#eUVWFg3wKD689)" clip-rule="evenodd"><g><g clip-rule="evenodd"><path d="M20.959,64.453c.972,1.72,3.251,2.275,5.087,1.238c1.837-1.037,2.539-3.276,1.567-4.996-.971-1.72-3.25-2.275-5.087-1.238-1.836,1.037-2.538,3.275-1.567,4.996Z" clip-rule="evenodd" fill="#384e54" fill-rule="evenodd" stroke-linecap="round"/><path d="M52.041,64.452c-.972,1.721-3.251,2.275-5.087,1.239-1.837-1.037-2.539-3.276-1.567-4.996.971-1.72,3.25-2.275,5.087-1.238c1.836,1.037,2.538,3.275,1.567,4.995Z" clip-rule="evenodd" fill="#384e54" fill-rule="evenodd" stroke-linecap="round"/><path d="M36.455,67.271c1.106-.01,2.21-.049,3.316-.09c5.933-.22,10.776-4.94,10.776-10.908v-20h-28v20c0,5.968,4.667,10.491,10.59,10.908c1.106.078,2.212.099,3.318.09Z" clip-rule="evenodd" fill="#384e54" stroke-linecap="round"/><path d="M47.939,63.589c-.46-.26-1.818-1.202-1.981-1.648-.184-.504-.16-1.066.114-1.551.347-.614,1.006-.949,1.697-.937.34.01,1.72.637,2.042.819.978.552,1.351,1.742.834,2.658s-1.729,1.211-2.706.659Z" clip-rule="evenodd" fill="#76e1fe" stroke-linecap="round"/><rect width="3.087" height="3.531" rx="0" ry="0" transform="translate(35.054 49.419)" clip-rule="evenodd" fill-opacity="0.33" fill-rule="evenodd" stroke-linecap="round"/><path d="M36.547,65.273c9,0,12-3.716,12-9v-20h-24c.049,7.356,0,18,0,20c0,5.285,3,9,12,9Z" clip-rule="evenodd" fill="#76e1fe" stroke-linecap="round"/><path d="M25.473,63.589c.459-.26,1.818-1.202,1.981-1.648.183-.504.159-1.066-.115-1.551-.347-.614-1.005-.949-1.696-.937-.34.01-1.721.637-2.043.819-.978.552-1.351,1.742-.834,2.658s1.729,1.211,2.707.659Z" clip-rule="evenodd" fill="#76e1fe" stroke-linecap="round"/><circle r="4.654" transform="translate(31.371 58.281)" clip-rule="evenodd" fill="#fff" fill-rule="evenodd" stroke-linecap="round"/><circle r="4.832" transform="translate(42.207 58.281)" clip-rule="evenodd" fill="#fff" fill-rule="evenodd" stroke-linecap="round"/><rect width="3.667" height="4.106" rx="0" ry="0" transform="translate(34.763 49.303)" clip-rule="evenodd" fill="#fffcfb" fill-rule="evenodd" stroke-linecap="round"/><path d="M34.523,55.338c-1.184-.383-1.976-1.083-1.976-1.884v0c0-.838.871-1.269,2.145-1.166.023,0,.048.6.254.583.504-.042,1.096.02,1.686.02.613,0,1.206-.183,1.685-.017.111.038.179-.584.262-.582c1.244.033,2.079.339,2.079,1.162c0,.801-.793,1.501-1.976,1.884-.028.726-.949,1.31-2.08,1.31-1.13,0-2.051-.584-2.079-1.31Z" clip-rule="evenodd" fill-opacity="0.33" stroke-linecap="round"/><path d="M32.569,52.935c0-.569.434-.856,1.138-1.001.292-.06.631-.096,1.004-.116.564-.032,1.208-.031,1.891-.031.673,0,1.308,0,1.865.029.307.017.59.043.843.084.814.132,1.325.417,1.325,1.034c0,1.16-1.805,2.101-4.033,2.101-2.227,0-4.033-.941-4.033-2.101v.001Z" clip-rule="evenodd" fill="#c38c74" stroke-linecap="round"/><ellipse rx="2.08" ry="1.344" transform="translate(36.602 54.785)" clip-rule="evenodd" fill="#23201f" fill-rule="evenodd" stroke-linecap="round"/><circle r="1.963" transform="translate(43.119 56.738)" clip-rule="evenodd" fill="#171311" fill-rule="evenodd" stroke-linecap="round"/><circle r="1.963" transform="translate(32.423 56.738)" clip-rule="evenodd" fill="#171311" fill-rule="evenodd" stroke-linecap="round"/><path d="M47.541,61.362c1.171,1.084,2.027.772,2.044.747" clip-rule="evenodd" fill="none" stroke="#384e54" stroke-width="0.4" stroke-linecap="round"/><path d="M48.161,61.72c1.159-.036,1.347-.631,1.339-.653m-23.584.396c-1.17,1.083-2.027.772-2.044.746" clip-rule="evenodd" fill="none" stroke="#384e54" stroke-width="0.4" stroke-linecap="round"/><path d="M25.225,61.962c-1.159-.036-1.347-.63-1.339-.652" clip-rule="evenodd" fill="none" stroke="#384e54" stroke-width="0.4" stroke-linecap="round"/></g></g><clipPath id="eUVWFg3wKD689"><path d="M59,45.273h-45v21c0,1.591.632,3.117,1.757,4.242c1.126,1.126,2.652,1.758,4.243,1.758c8.612,0,24.388,0,33,0c1.591,0,3.117-.632,4.243-1.758C58.368,69.39,59,67.864,59,66.273c0-7.955,0-21,0-21Z" clip-rule="evenodd" fill-rule="evenodd" stroke-linecap="round"/></clipPath></g><path d="M59,45.273h-45v21c0,1.591.632,3.117,1.757,4.242c1.126,1.126,2.652,1.758,4.243,1.758c8.612,0,24.388,0,33,0c1.591,0,3.117-.632,4.243-1.758C58.368,69.39,59,67.864,59,66.273c0-7.955,0-21,0-21Zm-2,2v19c0,1.061-.421,2.078-1.172,2.828-.75.75-1.767,1.172-2.828,1.172c0,0-33,0-33,0-1.061,0-2.078-.422-2.828-1.172-.751-.75-1.172-1.767-1.172-2.828c0,0,0-19,0-19h41Z" clip-rule="evenodd" fill="#171311" fill-rule="evenodd" stroke-linecap="round"/></g></g><clipPath id="eUVWFg3wKD692"><rect width="54.017" height="27.74" rx="0" ry="0" transform="translate(10.076 46.26)" clip-rule="evenodd" fill-rule="evenodd" stroke-linecap="round"/></clipPath></g><rect width="45" height="1.975" rx="0" ry="0" transform="translate(14 45.273)" clip-rule="evenodd" fill="#171311" fill-rule="evenodd" stroke-linecap="round"/>
<script><![CDATA[
!function(t,n){"object"==typeof exports&&"undefined"!=typeof module?module.exports=n():"function"==typeof define&&define.amd?define(n):((t="undefined"!=typeof globalThis?globalThis:t||self).__SVGATOR_PLAYER__=t.__SVGATOR_PLAYER__||{},t.__SVGATOR_PLAYER__["5c7f360c"]=n())}(this,(function(){"use strict";function t(t,n){var e=Object.keys(t);if(Object.getOwnPropertySymbols){var r=Object.getOwnPropertySymbols(t);n&&(r=r.filter((function(n){return Object.getOwnPropertyDescriptor(t,n).enumerable}))),e.push.apply(e,r)}return e}function n(n){for(var e=1;e<arguments.length;e++){var r=null!=arguments[e]?arguments[e]:{};e%2?t(Object(r),!0).forEach((function(t){o(n,t,r[t])})):Object.getOwnPropertyDescriptors?Object.defineProperties(n,Object.getOwnPropertyDescriptors(r)):t(Object(r)).forEach((function(t){Object.defineProperty(n,t,Object.getOwnPropertyDescriptor(r,t))}))}return n}function e(t){return(e="function"==typeof Symbol&&"symbol"==typeof Symbol.iterator?function(t){return typeof t}:function(t){return t&&"function"==typeof Symbol&&t.constructor===Symbol&&t!==Symbol.prototype?"symbol":typeof t})(t)}function r(t,n){if(!(t instanceof n))throw new TypeError("Cannot call a class as a function")}function i(t,n){for(var e=0;e<n.length;e++){var r=n[e];r.enumerable=r.enumerable||!1,r.configurable=!0,"value"in r&&(r.writable=!0),Object.defineProperty(t,r.key,r)}}function u(t,n,e){return n&&i(t.prototype,n),e&&i(t,e),t}function o(t,n,e){return n in t?Object.defineProperty(t,n,{value:e,enumerable:!0,configurable:!0,writable:!0}):t[n]=e,t}function a(t){return(a=Object.setPrototypeOf?Object.getPrototypeOf:function(t){return t.__proto__||Object.getPrototypeOf(t)})(t)}function l(t,n){return(l=Object.setPrototypeOf||function(t,n){return t.__proto__=n,t})(t,n)}function s(){if("undefined"==typeof Reflect||!Reflect.construct)return!1;if(Reflect.construct.sham)return!1;if("function"==typeof Proxy)return!0;try{return Boolean.prototype.valueOf.call(Reflect.construct(Boolean,[],(function(){}))),!0}catch(t){return!1}}function f(t,n,e){return(f=s()?Reflect.construct:function(t,n,e){var r=[null];r.push.apply(r,n);var i=new(Function.bind.apply(t,r));return e&&l(i,e.prototype),i}).apply(null,arguments)}function c(t,n){if(n&&("object"==typeof n||"function"==typeof n))return n;if(void 0!==n)throw new TypeError("Derived constructors may only return object or undefined");return function(t){if(void 0===t)throw new ReferenceError("this hasn't been initialised - super() hasn't been called");return t}(t)}function h(t,n,e){return(h="undefined"!=typeof Reflect&&Reflect.get?Reflect.get:function(t,n,e){var r=function(t,n){for(;!Object.prototype.hasOwnProperty.call(t,n)&&null!==(t=a(t)););return t}(t,n);if(r){var i=Object.getOwnPropertyDescriptor(r,n);return i.get?i.get.call(e):i.value}})(t,n,e||t)}function v(t){return function(t){if(Array.isArray(t))return y(t)}(t)||function(t){if("undefined"!=typeof Symbol&&null!=t[Symbol.iterator]||null!=t["@@iterator"])return Array.from(t)}(t)||function(t,n){if(!t)return;if("string"==typeof t)return y(t,n);var e=Object.prototype.toString.call(t).slice(8,-1);"Object"===e&&t.constructor&&(e=t.constructor.name);if("Map"===e||"Set"===e)return Array.from(t);if("Arguments"===e||/^(?:Ui|I)nt(?:8|16|32)(?:Clamped)?Array$/.test(e))return y(t,n)}(t)||function(){throw new TypeError("Invalid attempt to spread non-iterable instance.\nIn order to be iterable, non-array objects must have a [Symbol.iterator]() method.")}()}function y(t,n){(null==n||n>t.length)&&(n=t.length);for(var e=0,r=new Array(n);e<n;e++)r[e]=t[e];return r}Number.isInteger||(Number.isInteger=function(t){return"number"==typeof t&&isFinite(t)&&Math.floor(t)===t}),Number.EPSILON||(Number.EPSILON=2220446049250313e-31);var g=d(Math.pow(10,-6));function d(t){var n=arguments.length>1&&void 0!==arguments[1]?arguments[1]:6;if(Number.isInteger(t))return t;var e=Math.pow(10,n);return Math.round((+t+Number.EPSILON)*e)/e}function p(t,n){var e=arguments.length>2&&void 0!==arguments[2]?arguments[2]:g;return Math.abs(t-n)<e}var m=Math.PI/180;function b(t){return t}function w(t,n,e){var r=1-e;return 3*e*r*(t*r+n*e)+e*e*e}function x(){var t=arguments.length>0&&void 0!==arguments[0]?arguments[0]:0,n=arguments.length>1&&void 0!==arguments[1]?arguments[1]:0,e=arguments.length>2&&void 0!==arguments[2]?arguments[2]:1,r=arguments.length>3&&void 0!==arguments[3]?arguments[3]:1;return t<0||t>1||e<0||e>1?null:p(t,n)&&p(e,r)?b:function(i){if(i<=0)return t>0?i*n/t:0===n&&e>0?i*r/e:0;if(i>=1)return e<1?1+(i-1)*(r-1)/(e-1):1===e&&t<1?1+(i-1)*(n-1)/(t-1):1;for(var u,o=0,a=1;o<a;){var l=w(t,e,u=(o+a)/2);if(p(i,l))break;l<i?o=u:a=u}return w(n,r,u)}}function A(){return 1}function k(t){return 1===t?1:0}function _(){var t=arguments.length>0&&void 0!==arguments[0]?arguments[0]:1,n=arguments.length>1&&void 0!==arguments[1]?arguments[1]:0;if(1===t){if(0===n)return k;if(1===n)return A}var e=1/t;return function(t){return t>=1?1:(t+=n*e)-t%e}}var S=Math.sin,O=Math.cos,j=Math.acos,M=Math.asin,P=Math.tan,E=Math.atan2,I=Math.PI/180,R=180/Math.PI,F=Math.sqrt,N=function(){function t(){var n=arguments.length>0&&void 0!==arguments[0]?arguments[0]:1,e=arguments.length>1&&void 0!==arguments[1]?arguments[1]:0,i=arguments.length>2&&void 0!==arguments[2]?arguments[2]:0,u=arguments.length>3&&void 0!==arguments[3]?arguments[3]:1,o=arguments.length>4&&void 0!==arguments[4]?arguments[4]:0,a=arguments.length>5&&void 0!==arguments[5]?arguments[5]:0;r(this,t),this.m=[n,e,i,u,o,a],this.i=null,this.w=null,this.s=null}return u(t,[{key:"determinant",get:function(){var t=this.m;return t[0]*t[3]-t[1]*t[2]}},{key:"isIdentity",get:function(){if(null===this.i){var t=this.m;this.i=1===t[0]&&0===t[1]&&0===t[2]&&1===t[3]&&0===t[4]&&0===t[5]}return this.i}},{key:"point",value:function(t,n){var e=this.m;return{x:e[0]*t+e[2]*n+e[4],y:e[1]*t+e[3]*n+e[5]}}},{key:"translateSelf",value:function(){var t=arguments.length>0&&void 0!==arguments[0]?arguments[0]:0,n=arguments.length>1&&void 0!==arguments[1]?arguments[1]:0;if(!t&&!n)return this;var e=this.m;return e[4]+=e[0]*t+e[2]*n,e[5]+=e[1]*t+e[3]*n,this.w=this.s=this.i=null,this}},{key:"rotateSelf",value:function(){var t=arguments.length>0&&void 0!==arguments[0]?arguments[0]:0;if(t%=360){var n=S(t*=I),e=O(t),r=this.m,i=r[0],u=r[1];r[0]=i*e+r[2]*n,r[1]=u*e+r[3]*n,r[2]=r[2]*e-i*n,r[3]=r[3]*e-u*n,this.w=this.s=this.i=null}return this}},{key:"scaleSelf",value:function(){var t=arguments.length>0&&void 0!==arguments[0]?arguments[0]:1,n=arguments.length>1&&void 0!==arguments[1]?arguments[1]:1;if(1!==t||1!==n){var e=this.m;e[0]*=t,e[1]*=t,e[2]*=n,e[3]*=n,this.w=this.s=this.i=null}return this}},{key:"skewSelf",value:function(t,n){if(n%=360,(t%=360)||n){var e=this.m,r=e[0],i=e[1],u=e[2],o=e[3];t&&(t=P(t*I),e[2]+=r*t,e[3]+=i*t),n&&(n=P(n*I),e[0]+=u*n,e[1]+=o*n),this.w=this.s=this.i=null}return this}},{key:"resetSelf",value:function(){var t=arguments.length>0&&void 0!==arguments[0]?arguments[0]:1,n=arguments.length>1&&void 0!==arguments[1]?arguments[1]:0,e=arguments.length>2&&void 0!==arguments[2]?arguments[2]:0,r=arguments.length>3&&void 0!==arguments[3]?arguments[3]:1,i=arguments.length>4&&void 0!==arguments[4]?arguments[4]:0,u=arguments.length>5&&void 0!==arguments[5]?arguments[5]:0,o=this.m;return o[0]=t,o[1]=n,o[2]=e,o[3]=r,o[4]=i,o[5]=u,this.w=this.s=this.i=null,this}},{key:"recomposeSelf",value:function(){var t=arguments.length>0&&void 0!==arguments[0]?arguments[0]:null,n=arguments.length>1&&void 0!==arguments[1]?arguments[1]:null,e=arguments.length>2&&void 0!==arguments[2]?arguments[2]:null,r=arguments.length>3&&void 0!==arguments[3]?arguments[3]:null,i=arguments.length>4&&void 0!==arguments[4]?arguments[4]:null;return this.isIdentity||this.resetSelf(),t&&(t.x||t.y)&&this.translateSelf(t.x,t.y),n&&this.rotateSelf(n),e&&(e.x&&this.skewSelf(e.x,0),e.y&&this.skewSelf(0,e.y)),!r||1===r.x&&1===r.y||this.scaleSelf(r.x,r.y),i&&(i.x||i.y)&&this.translateSelf(i.x,i.y),this}},{key:"decompose",value:function(){var t=arguments.length>0&&void 0!==arguments[0]?arguments[0]:0,n=arguments.length>1&&void 0!==arguments[1]?arguments[1]:0,e=this.m,r=e[0]*e[0]+e[1]*e[1],i=[[e[0],e[1]],[e[2],e[3]]],u=F(r);if(0===u)return{origin:{x:d(e[4]),y:d(e[5])},translate:{x:d(t),y:d(n)},scale:{x:0,y:0},skew:{x:0,y:0},rotate:0};i[0][0]/=u,i[0][1]/=u;var o=e[0]*e[3]-e[1]*e[2]<0;o&&(u=-u);var a=i[0][0]*i[1][0]+i[0][1]*i[1][1];i[1][0]-=i[0][0]*a,i[1][1]-=i[0][1]*a;var l=F(i[1][0]*i[1][0]+i[1][1]*i[1][1]);if(0===l)return{origin:{x:d(e[4]),y:d(e[5])},translate:{x:d(t),y:d(n)},scale:{x:d(u),y:0},skew:{x:0,y:0},rotate:0};i[1][0]/=l,i[1][1]/=l,a/=l;var s=0;return i[1][1]<0?(s=j(i[1][1])*R,i[0][1]<0&&(s=360-s)):s=M(i[0][1])*R,o&&(s=-s),a=E(a,F(i[0][0]*i[0][0]+i[0][1]*i[0][1]))*R,o&&(a=-a),{origin:{x:d(e[4]),y:d(e[5])},translate:{x:d(t),y:d(n)},scale:{x:d(u),y:d(l)},skew:{x:d(a),y:0},rotate:d(s)}}},{key:"clone",value:function(){var t=this.m;return new this.constructor(t[0],t[1],t[2],t[3],t[4],t[5])}},{key:"toString",value:function(){var t=arguments.length>0&&void 0!==arguments[0]?arguments[0]:" ";if(null===this.s){var n=this.m.map((function(t){return d(t)}));1===n[0]&&0===n[1]&&0===n[2]&&1===n[3]?this.s="translate("+n[4]+t+n[5]+")":this.s="matrix("+n.join(t)+")"}return this.s}}],[{key:"create",value:function(t){return t?Array.isArray(t)?f(this,v(t)):t instanceof this?t.clone():(new this).recomposeSelf(t.origin,t.rotate,t.skew,t.scale,t.translate):new this}}]),t}();function T(t,n,e){return t>=.5?e:n}function q(t,n,e){return 0===t||n===e?n:t*(e-n)+n}function B(t,n,e){var r=q(t,n,e);return r<=0?0:r}function L(t,n,e){var r=q(t,n,e);return r<=0?0:r>=1?1:r}function C(t,n,e){return 0===t?n:1===t?e:{x:q(t,n.x,e.x),y:q(t,n.y,e.y)}}function D(t,n,e){var r=function(t,n,e){return Math.round(q(t,n,e))}(t,n,e);return r<=0?0:r>=255?255:r}function z(t,n,e){return 0===t?n:1===t?e:{r:D(t,n.r,e.r),g:D(t,n.g,e.g),b:D(t,n.b,e.b),a:q(t,null==n.a?1:n.a,null==e.a?1:e.a)}}function V(t,n){for(var e=[],r=0;r<t;r++)e.push(n);return e}function G(t,n){if(--n<=0)return t;var e=(t=Object.assign([],t)).length;do{for(var r=0;r<e;r++)t.push(t[r])}while(--n>0);return t}var Y,$=function(){function t(n){r(this,t),this.list=n,this.length=n.length}return u(t,[{key:"setAttribute",value:function(t,n){for(var e=this.list,r=0;r<this.length;r++)e[r].setAttribute(t,n)}},{key:"removeAttribute",value:function(t){for(var n=this.list,e=0;e<this.length;e++)n[e].removeAttribute(t)}},{key:"style",value:function(t,n){for(var e=this.list,r=0;r<this.length;r++)e[r].style[t]=n}}]),t}(),U=/-./g,Q=function(t,n){return n.toUpperCase()};function H(t){return"function"==typeof t?t:T}function J(t){return t?"function"==typeof t?t:Array.isArray(t)?function(t){var n=arguments.length>1&&void 0!==arguments[1]?arguments[1]:b;if(!Array.isArray(t))return n;switch(t.length){case 1:return _(t[0])||n;case 2:return _(t[0],t[1])||n;case 4:return x(t[0],t[1],t[2],t[3])||n}return n}(t,null):function(t,n){var e=arguments.length>2&&void 0!==arguments[2]?arguments[2]:b;switch(t){case"linear":return b;case"steps":return _(n.steps||1,n.jump||0)||e;case"bezier":case"cubic-bezier":return x(n.x1||0,n.y1||0,n.x2||0,n.y2||0)||e}return e}(t.type,t.value,null):null}function Z(t,n,e){var r=arguments.length>3&&void 0!==arguments[3]&&arguments[3],i=n.length-1;if(t<=n[0].t)return r?[0,0,n[0].v]:n[0].v;if(t>=n[i].t)return r?[i,1,n[i].v]:n[i].v;var u,o=n[0],a=null;for(u=1;u<=i;u++){if(!(t>n[u].t)){a=n[u];break}o=n[u]}return null==a?r?[i,1,n[i].v]:n[i].v:o.t===a.t?r?[u,1,a.v]:a.v:(t=(t-o.t)/(a.t-o.t),o.e&&(t=o.e(t)),r?[u,t,e(t,o.v,a.v)]:e(t,o.v,a.v))}function K(t,n){var e=arguments.length>2&&void 0!==arguments[2]?arguments[2]:null;return t&&t.length?"function"!=typeof n?null:("function"!=typeof e&&(e=null),function(r){var i=Z(r,t,n);return null!=i&&e&&(i=e(i)),i}):null}function W(t,n){return t.t-n.t}function X(t,n,r,i,u){var o,a="@"===r[0],l="#"===r[0],s=Y[r],f=T;switch(a?(o=r.substr(1),r=o.replace(U,Q)):l&&(r=r.substr(1)),e(s)){case"function":if(f=s(i,u,Z,J,r,a,n,t),l)return f;break;case"string":f=K(i,H(s));break;case"object":if((f=K(i,H(s.i),s.f))&&"function"==typeof s.u)return s.u(n,f,r,a,t)}return f?function(t,n,e){if(arguments.length>3&&void 0!==arguments[3]&&arguments[3])return t instanceof $?function(r){return t.style(n,e(r))}:function(r){return t.style[n]=e(r)};if(Array.isArray(n)){var r=n.length;return function(i){var u=e(i);if(null==u)for(var o=0;o<r;o++)t[o].removeAttribute(n);else for(var a=0;a<r;a++)t[a].setAttribute(n,u)}}return function(r){var i=e(r);null==i?t.removeAttribute(n):t.setAttribute(n,i)}}(n,r,f,a):null}function tt(t,n,r,i){if(!i||"object"!==e(i))return null;var u=null,o=null;return Array.isArray(i)?o=function(t){if(!t||!t.length)return null;for(var n=0;n<t.length;n++)t[n].e&&(t[n].e=J(t[n].e));return t.sort(W)}(i):(o=i.keys,u=i.data||null),o?X(t,n,r,o,u):null}function nt(t,n,e){if(!e)return null;var r=[];for(var i in e)if(e.hasOwnProperty(i)){var u=tt(t,n,i,e[i]);u&&r.push(u)}return r.length?r:null}function et(t,n){if(!n.settings.duration||n.settings.duration<0)return null;var e,r,i,u,o,a=function(t,n){if(!n)return null;var e=[];if(Array.isArray(n))for(var r=n.length,i=0;i<r;i++){var u=n[i];if(2===u.length){var o=null;if("string"==typeof u[0])o=t.getElementById(u[0]);else if(Array.isArray(u[0])){o=[];for(var a=0;a<u[0].length;a++)if("string"==typeof u[0][a]){var l=t.getElementById(u[0][a]);l&&o.push(l)}o=o.length?1===o.length?o[0]:new $(o):null}if(o){var s=nt(t,o,u[1]);s&&(e=e.concat(s))}}}else for(var f in n)if(n.hasOwnProperty(f)){var c=t.getElementById(f);if(c){var h=nt(t,c,n[f]);h&&(e=e.concat(h))}}return e.length?e:null}(t,n.elements);return a?(e=a,r=n.settings,i=r.duration,u=e.length,o=null,function(t,n){var a=r.iterations||1/0,l=(r.alternate&&a%2==0)^r.direction>0?i:0,s=t%i,f=1+(t-s)/i;n*=r.direction,r.alternate&&f%2==0&&(n=-n);var c=!1;if(f>a)s=l,c=!0,-1===r.fill&&(s=r.direction>0?0:i);else if(n<0&&(s=i-s),s===o)return!1;o=s;for(var h=0;h<u;h++)e[h](s);return c}):null}function rt(t,n){if(Y=n,!t||!t.root||!Array.isArray(t.animations))return null;var e=function(t){for(var n=document.getElementsByTagName("svg"),e=0;e<n.length;e++)if(n[e].id===t.root&&!n[e].svgatorAnimation)return n[e].svgatorAnimation=!0,n[e];return null}(t);if(!e)return null;var r=t.animations.map((function(t){return et(e,t)})).filter((function(t){return!!t}));return r.length?{svg:e,animations:r,animationSettings:t.animationSettings,options:t.options||void 0}:null}function it(t){return+("0x"+(t.replace(/[^0-9a-fA-F]+/g,"")||27))}function ut(t,n,e){return!t||!e||n>t.length?t:t.substring(0,n)+ut(t.substring(n+1),e,e)}function ot(t){var n=arguments.length>1&&void 0!==arguments[1]?arguments[1]:27;return!t||t%n?t%n:ot(t/n,n)}function at(t,n,e){if(t&&t.length){var r=it(e),i=it(n),u=ot(r)+5,o=ut(t,ot(r,5),u);return o=o.replace(/\x7c$/g,"==").replace(/\x2f$/g,"="),o=function(t,n,e){var r=+("0x"+t.substring(0,4));t=t.substring(4);for(var i=n%r+e%27,u=[],o=0;o<t.length;o+=2)if("|"!==t[o]){var a=+("0x"+t[o]+t[o+1])-i;u.push(a)}else{var l=+("0x"+t.substring(o+1,o+1+4))-i;o+=3,u.push(l)}return String.fromCharCode.apply(String,u)}(o=(o=atob(o)).replace(/[\x41-\x5A]/g,""),i,r),o=JSON.parse(o)}}var lt=[{key:"alternate",def:!1},{key:"fill",def:1},{key:"iterations",def:0},{key:"direction",def:1},{key:"speed",def:1},{key:"fps",def:100}],st=function(){function t(n,e){var i=this,u=arguments.length>2&&void 0!==arguments[2]?arguments[2]:null;r(this,t),this._id=0,this._running=!1,this._rollingBack=!1,this._animations=n,this._settings=e,(!u||u<"2022-05-02")&&delete this._settings.speed,lt.forEach((function(t){i._settings[t.key]=i._settings[t.key]||t.def})),this.duration=e.duration,this.offset=e.offset||0,this.rollbackStartOffset=0}return u(t,[{key:"alternate",get:function(){return this._settings.alternate}},{key:"fill",get:function(){return this._settings.fill}},{key:"iterations",get:function(){return this._settings.iterations}},{key:"direction",get:function(){return this._settings.direction}},{key:"speed",get:function(){return this._settings.speed}},{key:"fps",get:function(){return this._settings.fps}},{key:"maxFiniteDuration",get:function(){return this.iterations>0?this.iterations*this.duration:this.duration}},{key:"_apply",value:function(t){for(var n=arguments.length>1&&void 0!==arguments[1]?arguments[1]:{},e=this._animations,r=e.length,i=0,u=0;u<r;u++)n[u]?i++:(n[u]=e[u](t,1),n[u]&&i++);return i}},{key:"_rollback",value:function(t){var n=this,e=1/0,r=null;this.rollbackStartOffset=t,this._rollingBack=!0,this._running=!0;this._id=window.requestAnimationFrame((function i(u){if(n._rollingBack){null==r&&(r=u);var o=Math.round(t-(u-r)*n.speed);if(o>n.duration&&e!==1/0){var a=!!n.alternate&&o/n.duration%2>1,l=o%n.duration;o=(l+=a?n.duration:0)||n.duration}var s=(n.fps?1e3/n.fps:0)*n.speed,f=Math.max(0,o);f<=e-s&&(n.offset=f,e=f,n._apply(f));var c=n.iterations>0&&-1===n.fill&&o>=n.maxFiniteDuration;(o<=0||n.offset<o||c)&&n.stop(),n._id=window.requestAnimationFrame(i)}}))}},{key:"_start",value:function(){var t=this,n=arguments.length>0&&void 0!==arguments[0]?arguments[0]:0,e=-1/0,r=null,i={};this._running=!0;var u=function u(o){null==r&&(r=o);var a=Math.round((o-r)*t.speed+n),l=(t.fps?1e3/t.fps:0)*t.speed;if(a>=e+l&&!t._rollingBack&&(t.offset=a,e=a,t._apply(a,i)===t._animations.length))return void t.pause(!0);t._id=window.requestAnimationFrame(u)};this._id=window.requestAnimationFrame(u)}},{key:"_pause",value:function(){this._id&&window.cancelAnimationFrame(this._id),this._running=!1}},{key:"play",value:function(){if(!this._running)return this._rollingBack?this._rollback(this.offset):this._start(this.offset)}},{key:"stop",value:function(){this._pause(),this.offset=0,this.rollbackStartOffset=0,this._rollingBack=!1,this._apply(0)}},{key:"reachedToEnd",value:function(){return this.iterations>0&&this.offset>=this.iterations*this.duration}},{key:"restart",value:function(){var t=arguments.length>0&&void 0!==arguments[0]&&arguments[0];this.stop(t),this.play(t)}},{key:"pause",value:function(){this._pause()}},{key:"reverse",value:function(){this.direction=-this.direction}}],[{key:"build",value:function(t,n){delete t.animationSettings,t.options=at(t.options,t.root,"5c7f360c"),t.animations.map((function(n){n.settings=at(n.s,t.root,"5c7f360c"),delete n.s,t.animationSettings||(t.animationSettings=n.settings)}));var e=t.version;if(!(t=rt(t,n)))return null;var r=t.options||{},i=new this(t.animations,t.animationSettings,e);return{el:t.svg,options:r,player:i}}},{key:"push",value:function(t){return this.build(t)}},{key:"init",value:function(){var t=this,n=window.__SVGATOR_PLAYER__&&window.__SVGATOR_PLAYER__["5c7f360c"];Array.isArray(n)&&n.splice(0).forEach((function(n){return t.build(n)}))}}]),t}();function ft(t){return d(t)+""}function ct(t){var n=arguments.length>1&&void 0!==arguments[1]?arguments[1]:" ";return t&&t.length?t.map(ft).join(n):""}function ht(t){if(!t)return"transparent";if(null==t.a||t.a>=1){var n=function(t){return 1===(t=parseInt(t).toString(16)).length?"0"+t:t},e=function(t){return t.charAt(0)===t.charAt(1)},r=n(t.r),i=n(t.g),u=n(t.b);return e(r)&&e(i)&&e(u)&&(r=r.charAt(0),i=i.charAt(0),u=u.charAt(0)),"#"+r+i+u}return"rgba("+t.r+","+t.g+","+t.b+","+t.a+")"}function vt(t){return t?"url(#"+t+")":"none"}!function(){for(var t=0,n=["ms","moz","webkit","o"],e=0;e<n.length&&!window.requestAnimationFrame;++e)window.requestAnimationFrame=window[n[e]+"RequestAnimationFrame"],window.cancelAnimationFrame=window[n[e]+"CancelAnimationFrame"]||window[n[e]+"CancelRequestAnimationFrame"];window.requestAnimationFrame||(window.requestAnimationFrame=function(n){var e=Date.now(),r=Math.max(0,16-(e-t)),i=window.setTimeout((function(){n(e+r)}),r);return t=e+r,i},window.cancelAnimationFrame=window.clearTimeout)}();var yt={f:null,i:function(t,n,e){return 0===t?n:1===t?e:{x:B(t,n.x,e.x),y:B(t,n.y,e.y)}},u:function(t,n){return function(e){var r=n(e);t.setAttribute("rx",ft(r.x)),t.setAttribute("ry",ft(r.y))}}},gt={f:null,i:function(t,n,e){return 0===t?n:1===t?e:{width:B(t,n.width,e.width),height:B(t,n.height,e.height)}},u:function(t,n){return function(e){var r=n(e);t.setAttribute("width",ft(r.width)),t.setAttribute("height",ft(r.height))}}};Object.freeze({M:2,L:2,Z:0,H:1,V:1,C:6,Q:4,T:2,S:4,A:7});var dt={},pt=null;function mt(t){var n=function(){if(pt)return pt;if("object"!==("undefined"==typeof document?"undefined":e(document))||!document.createElementNS)return{};var t=document.createElementNS("http://www.w3.org/2000/svg","svg");return t&&t.style?(t.style.position="absolute",t.style.opacity="0.01",t.style.zIndex="-9999",t.style.left="-9999px",t.style.width="1px",t.style.height="1px",pt={svg:t}):{}}().svg;if(!n)return function(t){return null};var r=document.createElementNS(n.namespaceURI,"path");r.setAttributeNS(null,"d",t),r.setAttributeNS(null,"fill","none"),r.setAttributeNS(null,"stroke","none"),n.appendChild(r);var i=r.getTotalLength();return function(t){var n=r.getPointAtLength(i*t);return{x:n.x,y:n.y}}}function bt(t){return dt[t]?dt[t]:dt[t]=mt(t)}function wt(t,n,e,r){if(!t||!r)return!1;var i=["M",t.x,t.y];if(n&&e&&(i.push("C"),i.push(n.x),i.push(n.y),i.push(e.x),i.push(e.y)),n?!e:e){var u=n||e;i.push("Q"),i.push(u.x),i.push(u.y)}return n||e||i.push("L"),i.push(r.x),i.push(r.y),i.join(" ")}function xt(t,n,e,r){var i=arguments.length>4&&void 0!==arguments[4]?arguments[4]:1,u=wt(t,n,e,r),o=bt(u);try{return o(i)}catch(t){return null}}function At(t,n,e){return t+(n-t)*e}function kt(t,n,e){var r=arguments.length>3&&void 0!==arguments[3]&&arguments[3],i={x:At(t.x,n.x,e),y:At(t.y,n.y,e)};return r&&(i.a=_t(t,n)),i}function _t(t,n){return Math.atan2(n.y-t.y,n.x-t.x)}function St(t,n,e,r){var i=1-r;return i*i*t+2*i*r*n+r*r*e}function Ot(t,n,e,r){return 2*(1-r)*(n-t)+2*r*(e-n)}function jt(t,n,e,r){var i=arguments.length>4&&void 0!==arguments[4]&&arguments[4],u=xt(t,n,null,e,r);return u||(u={x:St(t.x,n.x,e.x,r),y:St(t.y,n.y,e.y,r)}),i&&(u.a=Mt(t,n,e,r)),u}function Mt(t,n,e,r){return Math.atan2(Ot(t.y,n.y,e.y,r),Ot(t.x,n.x,e.x,r))}function Pt(t,n,e,r,i){var u=i*i;return i*u*(r-t+3*(n-e))+3*u*(t+e-2*n)+3*i*(n-t)+t}function Et(t,n,e,r,i){var u=1-i;return 3*(u*u*(n-t)+2*u*i*(e-n)+i*i*(r-e))}function It(t,n,e,r,i){var u=arguments.length>5&&void 0!==arguments[5]&&arguments[5],o=xt(t,n,e,r,i);return o||(o={x:Pt(t.x,n.x,e.x,r.x,i),y:Pt(t.y,n.y,e.y,r.y,i)}),u&&(o.a=Rt(t,n,e,r,i)),o}function Rt(t,n,e,r,i){return Math.atan2(Et(t.y,n.y,e.y,r.y,i),Et(t.x,n.x,e.x,r.x,i))}function Ft(t,n,e){var r=arguments.length>3&&void 0!==arguments[3]&&arguments[3];if(Tt(n)){if(qt(e))return jt(n,e.start,e,t,r)}else if(Tt(e)){if(Bt(n))return jt(n,n.end,e,t,r)}else{if(Bt(n))return qt(e)?It(n,n.end,e.start,e,t,r):jt(n,n.end,e,t,r);if(qt(e))return jt(n,e.start,e,t,r)}return kt(n,e,t,r)}function Nt(t,n,e){var r=Ft(t,n,e,!0);return r.a=function(t){return arguments.length>1&&void 0!==arguments[1]&&arguments[1]?t+Math.PI:t}(r.a)/m,r}function Tt(t){return!t.type||"corner"===t.type}function qt(t){return null!=t.start&&!Tt(t)}function Bt(t){return null!=t.end&&!Tt(t)}var Lt=new N;var Ct={f:ft,i:q},Dt={f:ft,i:L};function zt(t,n,e){return t.map((function(t){return function(t,n,e){var r=t.v;if(!r||"g"!==r.t||r.s||!r.v||!r.r)return t;var i=e.getElementById(r.r),u=i&&i.querySelectorAll("stop")||[];return r.s=r.v.map((function(t,n){var e=u[n]&&u[n].getAttribute("offset");return{c:t,o:e=d(parseInt(e)/100)}})),delete r.v,t}(t,0,e)}))}var Vt={gt:"gradientTransform",c:{x:"cx",y:"cy"},rd:"r",f:{x:"x1",y:"y1"},to:{x:"x2",y:"y2"}};function Gt(t,n,r,i,u,o,a,l){return zt(t,0,l),n=function(t,n,e){for(var r,i,u,o=t.length-1,a={},l=0;l<=o;l++)(r=t[l]).e&&(r.e=n(r.e)),r.v&&"g"===(i=r.v).t&&i.r&&(u=e.getElementById(i.r))&&(a[i.r]={e:u,s:u.querySelectorAll("stop")});return a}(t,i,l),function(i){var u=r(i,t,Yt);if(!u)return"none";if("c"===u.t)return ht(u.v);if("g"===u.t){if(!n[u.r])return vt(u.r);var o=n[u.r];return function(t,n){for(var e=t.s,r=e.length;r<n.length;r++){var i=e[e.length-1].cloneNode();i.id=Qt(i.id),t.e.appendChild(i),e=t.s=t.e.querySelectorAll("stop")}for(var u=0,o=e.length,a=n.length-1;u<o;u++)e[u].setAttribute("stop-color",ht(n[Math.min(u,a)].c)),e[u].setAttribute("offset",n[Math.min(u,a)].o)}(o,u.s),Object.keys(Vt).forEach((function(t){if(void 0!==u[t])if("object"!==e(Vt[t])){var n,r="gt"===t?(n=u[t],Array.isArray(n)?"matrix("+n.join(" ")+")":""):u[t],i=Vt[t];o.e.setAttribute(i,r)}else Object.keys(Vt[t]).forEach((function(n){if(void 0!==u[t][n]){var e=u[t][n],r=Vt[t][n];o.e.setAttribute(r,e)}}))})),vt(u.r)}return"none"}}function Yt(t,e,r){if(0===t)return e;if(1===t)return r;if(e&&r){var i=e.t;if(i===r.t)switch(e.t){case"c":return{t:i,v:z(t,e.v,r.v)};case"g":if(e.r===r.r){var u={t:i,s:$t(t,e.s,r.s),r:e.r};return e.gt&&r.gt&&(u.gt=function(t,n,e){var r=n.length;if(r!==e.length)return T(t,n,e);for(var i=new Array(r),u=0;u<r;u++)i[u]=q(t,n[u],e[u]);return i}(t,e.gt,r.gt)),e.c?(u.c=C(t,e.c,r.c),u.rd=B(t,e.rd,r.rd)):e.f&&(u.f=C(t,e.f,r.f),u.to=C(t,e.to,r.to)),u}}if("c"===e.t&&"g"===r.t||"c"===r.t&&"g"===e.t){var o="c"===e.t?e:r,a="g"===e.t?n({},e):n({},r),l=a.s.map((function(t){return{c:o.v,o:t.o}}));return a.s="c"===e.t?$t(t,l,a.s):$t(t,a.s,l),a}}return T(t,e,r)}function $t(t,n,e){if(n.length===e.length)return n.map((function(n,r){return Ut(t,n,e[r])}));for(var r=Math.max(n.length,e.length),i=[],u=0;u<r;u++){var o=Ut(t,n[Math.min(u,n.length-1)],e[Math.min(u,e.length-1)]);i.push(o)}return i}function Ut(t,n,e){return{o:L(t,n.o,e.o||0),c:z(t,n.c,e.c||{})}}function Qt(t){return t.replace(/-fill-([0-9]+)$/,(function(t,n){return"-fill-"+(+n+1)}))}var Ht={fill:Gt,"fill-opacity":Dt,stroke:Gt,"stroke-opacity":Dt,"stroke-width":Ct,"stroke-dashoffset":{f:ft,i:q},"stroke-dasharray":{f:function(t){var n=arguments.length>1&&void 0!==arguments[1]?arguments[1]:" ";return t&&t.length>0&&(t=t.map((function(t){return d(t,4)}))),ct(t,n)},i:function(t,n,e){var r,i,u,o=n.length,a=e.length;if(o!==a)if(0===o)n=V(o=a,0);else if(0===a)a=o,e=V(o,0);else{var l=(u=(r=o)*(i=a)/function(t,n){for(var e;n;)e=n,n=t%n,t=e;return t||1}(r,i))<0?-u:u;n=G(n,Math.floor(l/o)),e=G(e,Math.floor(l/a)),o=a=l}for(var s=[],f=0;f<o;f++)s.push(d(B(t,n[f],e[f])));return s}},opacity:Dt,transform:function(t,n,r,i){if(!(t=function(t,n){if(!t||"object"!==e(t))return null;var r=!1;for(var i in t)t.hasOwnProperty(i)&&(t[i]&&t[i].length?(t[i].forEach((function(t){t.e&&(t.e=n(t.e))})),r=!0):delete t[i]);return r?t:null}(t,i)))return null;var u=function(e,i,u){var o=arguments.length>3&&void 0!==arguments[3]?arguments[3]:null;return t[e]?r(i,t[e],u):n&&n[e]?n[e]:o};return n&&n.a&&t.o?function(n){var e=r(n,t.o,Nt);return Lt.recomposeSelf(e,u("r",n,q,0)+e.a,u("k",n,C),u("s",n,C),u("t",n,C)).toString()}:function(t){return Lt.recomposeSelf(u("o",t,Ft,null),u("r",t,q,0),u("k",t,C),u("s",t,C),u("t",t,C)).toString()}},r:Ct,"#size":gt,"#radius":yt,_:function(t,n){if(Array.isArray(t))for(var e=0;e<t.length;e++)this[t[e]]=n;else this[t]=n}},Jt=function(t){!function(t,n){if("function"!=typeof n&&null!==n)throw new TypeError("Super expression must either be null or a function");t.prototype=Object.create(n&&n.prototype,{constructor:{value:t,writable:!0,configurable:!0}}),n&&l(t,n)}(o,t);var n,e,i=(n=o,e=s(),function(){var t,r=a(n);if(e){var i=a(this).constructor;t=Reflect.construct(r,arguments,i)}else t=r.apply(this,arguments);return c(this,t)});function o(){return r(this,o),i.apply(this,arguments)}return u(o,null,[{key:"build",value:function(t){var n=h(a(o),"build",this).call(this,t,Ht);if(!n)return null;n.el,n.options,function(t,n,e){t.play()}(n.player)}}]),o}(st);return Jt.init(),Jt}));
(function(s,i,o,w,a,b){w[o]=w[o]||{};w[o][s]=w[o][s]||[];w[o][s].push(i);})('5c7f360c',{"root":"eUVWFg3wKD61","version":"2022-05-04","animations":[{"elements":{"eUVWFg3wKD621":{"transform":{"data":{"t":{"x":-36.5,"y":-19.111999}},"keys":{"o":[{"t":300,"v":{"x":36.5,"y":19.112,"type":"corner"},"e":[0.42,0,1,1]},{"t":4100,"v":{"x":36.5,"y":39.992999,"type":"corner"}}]}}},"eUVWFg3wKD666":{"transform":{"data":{"t":{"x":-36.5,"y":-54.273001}},"keys":{"o":[{"t":3500,"v":{"x":36.5,"y":28.272998,"type":"corner"}},{"t":7100,"v":{"x":36.5,"y":54.273001,"type":"corner"}}]}}}},"s":"MWDA1ZGFmNTY5OEhhOWQE2OTVhODlkYTNPYTIX1NjZlNmM2NDY0NjQ2YMDU2OTg5ZEdhNjk5OXTdIYTg5ZGEzYTI1NjMZlVDY1NjA1NjlkYTgJ5OWE2OTVhODlkYTNhCMlVhNzU2NmU2NEw2MVDU2OWFWOWRhMGEwNTOY2ZTY1NjA1Njk1YTBHhODk5YTZXYTI5NWE4IOTk1NjZlOWE5NWEwYHTc5OTYwNTZhN2E0QzKk5QTk5OThENTY2ZTYK1NjA1NjlhYTRhNzU2GNmU2NTY0NjRiMQ|"}],"options":"MHDAxMDg4MmY4MDgxNmPU3ZjgxMmY0NzJmNzkN3Y042ZTcxMmY4YQ|"},'__SVGATOR_PLAYER__',window)
]]></script>
</svg>
