<?xml version="1.0" encoding="UTF-8" standalone="no"?>
<!DOCTYPE svg PUBLIC "-//W3C//DTD SVG 1.1//EN" "http://www.w3.org/Graphics/SVG/1.1/DTD/svg11.dtd">
<svg width="100%" height="100%" viewBox="0 0 187 74" version="1.1" xmlns="http://www.w3.org/2000/svg" xmlns:xlink="http://www.w3.org/1999/xlink" xml:space="preserve" xmlns:serif="http://www.serif.com/" style="fill-rule:evenodd;clip-rule:evenodd;stroke-linecap:round;">
    <g id="ArtBoard1" transform="matrix(2.92112,0,0,1.15625,0,0)">
        <rect x="0" y="0" width="64" height="64" style="fill:none;"/>
        <g transform="matrix(-0.535306,-1.65619e-16,3.717e-17,-0.766795,31.0239,57.5526)">
            <path d="M52,34.144L16.967,34.144L16.967,56.233C16.967,59.97 18.685,63 20.804,63C27.542,63 41.425,63 48.163,63C50.282,63 52,59.97 52,56.233C52,47.704 52,34.144 52,34.144Z" style="fill:rgb(56,78,84);"/>
            <path d="M52,34.144L16.967,34.144L16.967,56.233C16.967,59.97 18.685,63 20.804,63C27.542,63 41.425,63 48.163,63C50.282,63 52,59.97 52,56.233C52,47.704 52,34.144 52,34.144ZM50.721,36.4L50.721,56.233C50.721,58.724 49.576,60.744 48.163,60.744C48.163,60.744 20.804,60.744 20.804,60.744C19.391,60.744 18.246,58.724 18.246,56.233C18.246,56.233 18.246,36.4 18.246,36.4L50.721,36.4Z" style="fill:rgb(23,19,17);"/>
        </g>
        <g transform="matrix(-0.429957,-1.33025e-16,4.9865e-17,-1.02868,27.5945,66.4946)">
            <path d="M53.033,34.144L17.203,34.144L17.203,57.955C17.203,60.741 19.342,63 21.981,63C28.838,63 41.398,63 48.256,63C50.894,63 53.033,60.741 53.033,57.955C53.033,49.683 53.033,34.144 53.033,34.144Z" style="fill:white;"/>
            <path d="M53.033,34.144L17.203,34.144L17.203,57.955C17.203,60.741 19.342,63 21.981,63C28.838,63 41.398,63 48.256,63C50.894,63 53.033,60.741 53.033,57.955C53.033,49.683 53.033,34.144 53.033,34.144ZM51.44,35.826L51.44,57.955C51.44,59.813 50.014,61.318 48.256,61.318C48.255,61.318 21.981,61.318 21.981,61.318C20.222,61.318 18.796,59.813 18.796,57.955C18.796,57.955 18.796,35.826 18.796,35.826L51.44,35.826Z" style="fill:rgb(23,19,17);"/>
        </g>
        <g transform="matrix(0.342335,0,0,0.864865,0,-6.53428)">
            <rect x="9.312" y="26.2" width="54.781" height="3.256" style="fill-opacity:0.2;"/>
        </g>
        <g transform="matrix(0.465575,0,0,1.26312,-1.30087,-14.0448)">
            <path d="M55,29.108C55,28.019 54.535,26.974 53.708,26.203C52.88,25.433 51.758,25 50.588,25C41.109,25 18.891,25 9.412,25C8.242,25 7.12,25.433 6.292,26.203C5.465,26.974 5,28.019 5,29.108C5,33.748 5,41.252 5,45.892C5,46.981 5.465,48.026 6.292,48.797C7.12,49.567 8.242,50 9.412,50C18.891,50 41.109,50 50.588,50C51.758,50 52.88,49.567 53.708,48.797C54.535,48.026 55,46.981 55,45.892C55,41.252 55,33.748 55,29.108Z" style="fill:rgb(118,225,254);"/>
            <path d="M55,29.108C55,28.019 54.535,26.974 53.708,26.203C52.88,25.433 51.758,25 50.588,25C41.109,25 18.891,25 9.412,25C8.242,25 7.12,25.433 6.292,26.203C5.465,26.974 5,28.019 5,29.108C5,33.748 5,41.252 5,45.892C5,46.981 5.465,48.026 6.292,48.797C7.12,49.567 8.242,50 9.412,50C18.891,50 41.109,50 50.588,50C51.758,50 52.88,49.567 53.708,48.797C54.535,48.026 55,46.981 55,45.892C55,41.252 55,33.748 55,29.108ZM53.529,29.108C53.529,33.748 53.529,41.252 53.529,45.892C53.529,46.618 53.22,47.315 52.668,47.828C52.116,48.342 51.368,48.631 50.588,48.631L9.412,48.631C8.632,48.631 7.884,48.342 7.332,47.828C6.78,47.315 6.471,46.618 6.471,45.892C6.471,41.252 6.471,33.748 6.471,29.108C6.471,28.382 6.78,27.685 7.332,27.172C7.884,26.658 8.632,26.369 9.412,26.369L50.588,26.369C51.368,26.369 52.116,26.658 52.668,27.172C53.22,27.685 53.529,28.382 53.529,29.108Z" style="fill:rgb(56,78,84);"/>
        </g>
        <g transform="matrix(0.37792,0,0,0.988417,-1.11169,0.653778)">
            <path d="M61,40.5C61,38.568 59.376,37 57.377,37L15.623,37C13.624,37 12,38.568 12,40.5C12,42.432 13.624,44 15.623,44L57.377,44C59.376,44 61,42.432 61,40.5Z" style="fill-opacity:0.33;"/>
        </g>
        <g transform="matrix(0.37792,0,0,0.988417,-1.11169,-0.0112054)">
            <path d="M61,40.5C61,38.568 59.376,37 57.377,37L15.623,37C13.624,37 12,38.568 12,40.5C12,42.432 13.624,44 15.623,44L57.377,44C59.376,44 61,42.432 61,40.5Z" style="fill:rgb(56,78,84);"/>
        </g>
        <g transform="matrix(0.435763,0,0,0.864865,-2.46192,7.89505)">
            <path d="M52,36.144L16.648,36.144L16.648,57.144C16.648,58.735 17.145,60.262 18.029,61.387C18.913,62.512 20.112,63.144 21.362,63.144C28.128,63.144 40.521,63.144 47.286,63.144C48.537,63.144 49.735,62.512 50.619,61.387C51.503,60.262 52,58.735 52,57.144C52,49.189 52,36.144 52,36.144Z" style="fill:white;"/>
            <clipPath id="_clip1">
                <path d="M52,36.144L16.648,36.144L16.648,57.144C16.648,58.735 17.145,60.262 18.029,61.387C18.913,62.512 20.112,63.144 21.362,63.144C28.128,63.144 40.521,63.144 47.286,63.144C48.537,63.144 49.735,62.512 50.619,61.387C51.503,60.262 52,58.735 52,57.144C52,49.189 52,36.144 52,36.144Z"/>
            </clipPath>
            <g clip-path="url(#_clip1)">
                <g transform="matrix(-0.785599,1.22465e-16,-9.62081e-17,-1,47.5565,1079.51)">
                    <g transform="matrix(-0.491694,-0.870768,-0.870768,0.491694,0,0)">
                        <ellipse cx="-907.357" cy="479.9" rx="3.579" ry="3.821" style="fill:rgb(56,78,84);"/>
                    </g>
                    <g transform="matrix(0.491694,-0.870768,0.870768,0.491694,0,0)">
                        <ellipse cx="-891.577" cy="507.846" rx="3.579" ry="3.821" style="fill:rgb(56,78,84);"/>
                    </g>
                    <path d="M16.092,1021.36C14.986,1021.37 13.881,1021.41 12.776,1021.45C6.842,1021.67 2,1026.39 2,1032.36L2,1052.36L30,1052.36L30,1032.36C30,1026.39 25.333,1021.87 19.41,1021.45C18.304,1021.38 17.197,1021.36 16.092,1021.36Z" style="fill:rgb(56,78,84);fill-rule:nonzero;"/>
                    <path d="M4.608,1025.05C5.067,1025.31 6.426,1026.25 6.589,1026.69C6.772,1027.2 6.748,1027.76 6.474,1028.25C6.128,1028.86 5.469,1029.19 4.778,1029.18C4.438,1029.17 3.058,1028.55 2.735,1028.36C1.758,1027.81 1.384,1026.62 1.902,1025.7C2.419,1024.79 3.63,1024.49 4.608,1025.05Z" style="fill:rgb(118,225,254);fill-rule:nonzero;"/>
                    <rect x="14.406" y="1035.68" width="3.087" height="3.531" style="fill-opacity:0.33;"/>
                    <path d="M16,1023.36C7,1023.36 4,1027.08 4,1032.36L4,1052.36L28,1052.36C27.951,1045.01 28,1034.36 28,1032.36C28,1027.08 25,1023.36 16,1023.36Z" style="fill:rgb(118,225,254);fill-rule:nonzero;"/>
                    <path d="M27.074,1025.05C26.615,1025.31 25.256,1026.25 25.093,1026.69C24.91,1027.2 24.934,1027.76 25.208,1028.25C25.554,1028.86 26.213,1029.19 26.904,1029.18C27.244,1029.17 28.624,1028.55 28.947,1028.36C29.924,1027.81 30.297,1026.62 29.78,1025.7C29.263,1024.79 28.052,1024.49 27.074,1025.05Z" style="fill:rgb(118,225,254);fill-rule:nonzero;"/>
                    <circle cx="21.176" cy="1030.35" r="4.654" style="fill:white;"/>
                    <circle cx="10.339" cy="1030.35" r="4.832" style="fill:white;"/>
                    <rect x="14.116" y="1035.22" width="3.667" height="4.106" style="fill:rgb(255,252,251);"/>
                    <g transform="matrix(-1,-1.22465e-16,1.22465e-16,-1,53.0467,1084.36)">
                        <path d="M35.023,51.065C33.839,50.682 33.047,49.982 33.047,49.181L33.047,49.181C33.047,48.343 33.918,47.913 35.192,48.015C35.215,48.015 35.24,48.615 35.446,48.598C35.95,48.556 36.542,48.618 37.132,48.618C37.745,48.618 38.338,48.435 38.817,48.601C38.928,48.639 38.996,48.017 39.079,48.019C40.323,48.052 41.158,48.358 41.158,49.181C41.158,49.982 40.365,50.682 39.182,51.065C39.154,51.791 38.233,52.375 37.102,52.375C35.972,52.375 35.051,51.791 35.023,51.065Z" style="fill-opacity:0.33;fill-rule:nonzero;"/>
                    </g>
                    <path d="M19.977,1035.7C19.977,1036.27 19.544,1036.56 18.839,1036.7C18.547,1036.76 18.209,1036.8 17.836,1036.82C17.272,1036.85 16.628,1036.85 15.944,1036.85C15.272,1036.85 14.637,1036.85 14.079,1036.82C13.773,1036.8 13.49,1036.78 13.236,1036.74C12.422,1036.6 11.911,1036.32 11.911,1035.7C11.911,1034.54 13.717,1033.6 15.944,1033.6C18.172,1033.6 19.977,1034.54 19.977,1035.7L19.977,1035.7Z" style="fill:rgb(195,140,116);fill-rule:nonzero;"/>
                    <ellipse cx="15.944" cy="1033.85" rx="2.08" ry="1.344" style="fill:rgb(35,32,31);"/>
                    <g transform="matrix(1,0,0,1,-2.98686,1.54315)">
                        <circle cx="12.414" cy="1030.35" r="1.963" style="fill:rgb(23,19,17);"/>
                    </g>
                    <g transform="matrix(1,0,0,1,-2.98686,1.54315)">
                        <circle cx="23.11" cy="1030.35" r="1.963" style="fill:rgb(23,19,17);"/>
                    </g>
                    <path d="M5.006,1027.27C3.835,1026.19 2.979,1026.5 2.961,1026.53" style="fill:none;fill-rule:nonzero;stroke:rgb(56,78,84);stroke-width:0.4px;"/>
                    <path d="M4.385,1026.91C3.227,1026.95 3.039,1027.55 3.046,1027.57M26.631,1027.17C27.801,1026.09 28.658,1026.4 28.675,1026.43" style="fill:none;fill-rule:nonzero;stroke:rgb(56,78,84);stroke-width:0.4px;"/>
                    <path d="M27.322,1026.67C28.48,1026.71 28.668,1027.3 28.661,1027.33" style="fill:none;fill-rule:nonzero;stroke:rgb(56,78,84);stroke-width:0.4px;"/>
                </g>
            </g>
            <path d="M52,36.144L16.648,36.144L16.648,57.144C16.648,58.735 17.145,60.262 18.029,61.387C18.913,62.512 20.112,63.144 21.362,63.144C28.128,63.144 40.521,63.144 47.286,63.144C48.537,63.144 49.735,62.512 50.619,61.387C51.503,60.262 52,58.735 52,57.144C52,49.189 52,36.144 52,36.144ZM50.429,38.144L50.429,57.144C50.429,58.205 50.098,59.222 49.508,59.973C48.919,60.723 48.12,61.144 47.286,61.144C47.286,61.144 21.362,61.144 21.362,61.144C20.528,61.144 19.729,60.723 19.14,59.973C18.55,59.222 18.219,58.205 18.219,57.144C18.219,57.144 18.219,38.144 18.219,38.144L50.429,38.144Z" style="fill:rgb(23,19,17);"/>
        </g>
        <g transform="matrix(0.342335,0,0,0.864865,0,-6.3353)">
            <circle cx="12" cy="37" r="2" style="fill-opacity:0.33;"/>
        </g>
        <g transform="matrix(0.342335,0,0,0.864865,2.05401,-6.3353)">
            <circle cx="12" cy="37" r="2" style="fill-opacity:0.33;"/>
        </g>
        <g transform="matrix(0.342335,0,0,0.864865,0,-6.68302)">
            <circle cx="12" cy="37" r="2" style="fill:rgb(35,32,31);"/>
        </g>
        <g transform="matrix(0.342335,0,0,0.864865,2.05401,-6.68302)">
            <circle cx="12" cy="37" r="2" style="fill:rgb(195,140,116);"/>
        </g>
        <g transform="matrix(0.741386,0,0,1.87302,-42.3433,-63.8739)">
            <g transform="matrix(0.530679,0,0,0.530679,52.919,34.7168)">
                <path d="M154.306,16.709L89.188,16.708C88.235,16.708 87.414,17.381 87.227,18.316L84.363,32.635C84.246,33.223 84.398,33.832 84.778,34.296C85.158,34.759 85.725,35.028 86.324,35.028L151.512,35.028C152.467,35.028 153.289,34.353 153.474,33.416L156.269,19.093C156.383,18.506 156.229,17.899 155.85,17.438C155.47,16.977 154.903,16.709 154.306,16.709Z" style="fill:rgb(56,78,84);"/>
            </g>
            <path d="M98.73,52.244L100.249,44.645L102.658,44.645C103.16,44.645 103.613,44.713 104.015,44.848C104.417,44.983 104.738,45.2 104.977,45.5C105.216,45.799 105.336,46.197 105.336,46.694C105.336,47.235 105.243,47.697 105.056,48.08C104.869,48.462 104.612,48.771 104.286,49.006C103.96,49.241 103.584,49.413 103.158,49.522C102.733,49.63 102.285,49.684 101.816,49.684L100.981,49.684L100.464,52.244L98.73,52.244ZM101.254,48.316L101.927,48.316C102.459,48.316 102.87,48.201 103.158,47.969C103.447,47.738 103.591,47.399 103.591,46.952C103.591,46.628 103.487,46.391 103.278,46.24C103.069,46.089 102.768,46.013 102.373,46.013L101.701,46.013L101.254,48.316Z" style="fill:white;fill-rule:nonzero;"/>
            <g transform="matrix(0.530679,0,0,0.530679,52.919,34.7168)">
                <path d="M105.371,27.933L103.956,27.933L102.953,33.028L99.685,33.028L102.549,18.708L107.032,18.708C107.977,18.708 108.836,18.831 109.606,19.078C110.376,19.324 110.987,19.728 111.438,20.29C111.889,20.852 112.115,21.614 112.115,22.575C112.115,23.506 111.932,24.307 111.567,24.979C111.202,25.651 110.707,26.205 110.082,26.641C109.599,26.978 109.074,27.249 108.51,27.453L110.8,33.028L107.184,33.028L105.371,27.933ZM104.489,25.355L105.669,25.355C106.681,25.355 107.457,25.13 107.997,24.68C108.537,24.23 108.806,23.643 108.806,22.92C108.806,22.354 108.62,21.94 108.249,21.679C107.877,21.417 107.333,21.287 106.616,21.287L105.284,21.287L104.489,25.355Z" style="fill:white;fill-rule:nonzero;"/>
            </g>
            <path d="M113.058,52.244L113.363,50.79L115.113,50.79L116.069,46.098L114.295,46.098L114.599,44.645L119.862,44.645L119.558,46.098L117.803,46.098L116.847,50.79L118.623,50.79L118.319,52.244L113.058,52.244Z" style="fill:white;fill-rule:nonzero;"/>
            <path d="M120.261,52.244L121.78,44.645L123.517,44.645L124.307,48.447L124.578,50.113L124.625,50.113C124.642,49.913 124.664,49.683 124.691,49.422C124.718,49.162 124.746,48.9 124.774,48.636C124.801,48.372 124.831,48.129 124.862,47.904C124.893,47.68 124.921,47.496 124.945,47.353L125.481,44.645L127.119,44.645L125.6,52.244L123.905,52.244L123.053,48.443L122.781,46.774L122.735,46.774C122.71,47.051 122.682,47.367 122.65,47.721C122.617,48.074 122.58,48.421 122.537,48.761C122.494,49.1 122.449,49.394 122.403,49.643L121.899,52.244L120.261,52.244Z" style="fill:white;fill-rule:nonzero;"/>
            <path d="M129.308,52.244L130.525,46.101L128.261,46.101L128.544,44.645L134.806,44.645L134.522,46.101L132.258,46.101L131.043,52.244L129.308,52.244Z" style="fill:white;fill-rule:nonzero;"/>
        </g>
        <g transform="matrix(0.393438,0,0,0.993971,-2.45273,-16.6016)">
            <path d="M87.806,66.156C87.189,66.156 86.578,66.044 85.972,65.82C85.366,65.596 84.819,65.268 84.332,64.836L85.517,63.421C85.864,63.705 86.245,63.935 86.66,64.111C87.074,64.286 87.503,64.374 87.945,64.374C88.382,64.374 88.706,64.299 88.915,64.15C89.124,64.001 89.229,63.813 89.229,63.586C89.229,63.368 89.171,63.194 89.057,63.066C88.943,62.938 88.781,62.825 88.57,62.728C88.359,62.631 88.109,62.524 87.819,62.407L86.633,61.902C86.299,61.773 85.984,61.598 85.686,61.379C85.389,61.159 85.15,60.887 84.969,60.563C84.788,60.239 84.698,59.856 84.698,59.415C84.698,58.907 84.838,58.448 85.118,58.04C85.399,57.632 85.791,57.306 86.295,57.061C86.798,56.817 87.381,56.695 88.042,56.695C88.591,56.695 89.131,56.797 89.66,57.001C90.19,57.205 90.66,57.501 91.071,57.891L90.03,59.191C89.711,58.961 89.393,58.785 89.077,58.661C88.76,58.538 88.377,58.476 87.927,58.476C87.591,58.476 87.317,58.545 87.104,58.682C86.891,58.82 86.784,59.024 86.784,59.294C86.784,59.477 86.847,59.628 86.974,59.746C87.101,59.865 87.277,59.972 87.502,60.067C87.728,60.161 87.984,60.264 88.271,60.374L89.388,60.845C89.79,60.994 90.137,61.181 90.428,61.403C90.719,61.626 90.944,61.895 91.101,62.21C91.259,62.525 91.338,62.897 91.338,63.327C91.338,63.832 91.2,64.3 90.925,64.73C90.65,65.16 90.25,65.505 89.724,65.765C89.198,66.025 88.559,66.156 87.806,66.156Z" style="fill:rgb(56,78,84);fill-rule:nonzero;"/>
            <path d="M96.402,65.988L96.402,56.863L102.447,56.863L102.447,58.593L98.465,58.593L98.465,60.425L101.848,60.425L101.848,62.155L98.465,62.155L98.465,64.257L102.587,64.257L102.587,65.988L96.402,65.988Z" style="fill:rgb(56,78,84);fill-rule:nonzero;"/>
            <path d="M107.562,65.988L107.562,56.863L110.803,56.863C111.448,56.863 112.036,56.948 112.568,57.118C113.1,57.288 113.525,57.581 113.845,57.997C114.164,58.412 114.324,58.981 114.324,59.704C114.324,60.399 114.164,60.968 113.845,61.41C113.525,61.851 113.1,62.177 112.568,62.388C112.036,62.599 111.448,62.704 110.803,62.704L109.625,62.704L109.625,65.988L107.562,65.988ZM109.625,61.066L110.635,61.066C111.178,61.066 111.592,60.951 111.876,60.721C112.16,60.491 112.302,60.152 112.302,59.704C112.302,59.253 112.16,58.94 111.876,58.764C111.592,58.589 111.178,58.501 110.635,58.501L109.625,58.501L109.625,61.066ZM110.425,62.16L111.852,60.84L114.764,65.988L112.456,65.988L110.425,62.16Z" style="fill:rgb(56,78,84);fill-rule:nonzero;"/>
            <path d="M121.031,65.988L118.274,56.863L120.457,56.863L121.557,61.115C121.698,61.615 121.821,62.101 121.927,62.572C122.033,63.043 122.154,63.533 122.288,64.041L122.344,64.041C122.486,63.533 122.611,63.043 122.718,62.572C122.825,62.101 122.944,61.615 123.075,61.115L124.152,56.863L126.261,56.863L123.509,65.988L121.031,65.988Z" style="fill:rgb(56,78,84);fill-rule:nonzero;"/>
            <path d="M130.842,65.988L130.842,56.863L136.887,56.863L136.887,58.593L132.905,58.593L132.905,60.425L136.288,60.425L136.288,62.155L132.905,62.155L132.905,64.257L137.027,64.257L137.027,65.988L130.842,65.988Z" style="fill:rgb(56,78,84);fill-rule:nonzero;"/>
            <path d="M142.002,65.988L142.002,56.863L145.243,56.863C145.888,56.863 146.476,56.948 147.008,57.118C147.54,57.288 147.965,57.581 148.285,57.997C148.604,58.412 148.764,58.981 148.764,59.704C148.764,60.399 148.604,60.968 148.285,61.41C147.965,61.851 147.54,62.177 147.008,62.388C146.476,62.599 145.888,62.704 145.243,62.704L144.065,62.704L144.065,65.988L142.002,65.988ZM144.065,61.066L145.075,61.066C145.618,61.066 146.032,60.951 146.316,60.721C146.6,60.491 146.742,60.152 146.742,59.704C146.742,59.253 146.6,58.94 146.316,58.764C146.032,58.589 145.618,58.501 145.075,58.501L144.065,58.501L144.065,61.066ZM144.865,62.16L146.292,60.84L149.204,65.988L146.896,65.988L144.865,62.16Z" style="fill:rgb(56,78,84);fill-rule:nonzero;"/>
        </g>
    </g>
</svg>
